<?xml version="1.0" encoding="UTF-8" standalone="no"?><!DOCTYPE svg PUBLIC "-//W3C//DTD SVG 1.1//EN" "http://www.w3.org/Graphics/SVG/1.1/DTD/svg11.dtd"><svg width="100%" height="100%" viewBox="0 0 58 24" version="1.1" xmlns="http://www.w3.org/2000/svg" xmlns:xlink="http://www.w3.org/1999/xlink" xml:space="preserve" style="fill-rule:evenodd;clip-rule:evenodd;stroke-linejoin:round;stroke-miterlimit:1.41421;"><g><g><path d="M5.843,12.105l-1.479,1.48l0,8.135l1.479,1.479l-5.843,0l1.479,-1.479l0,-8.135l-1.479,-1.48l5.843,0Z" style="fill:#cbcbcb;fill-rule:nonzero;"/><path d="M12.055,23.273l-3.032,-0.443l1.529,-2.614l1.676,1.652c0.296,0.197 0.641,0.296 1.035,0.296c0.428,0 0.814,-0.127 1.159,-0.382c0.345,-0.255 0.518,-0.629 0.518,-1.122c0,-0.263 -0.062,-0.476 -0.185,-0.641c-0.123,-0.164 -0.275,-0.312 -0.456,-0.444l-2.934,-1.577c-0.739,-0.411 -1.257,-0.88 -1.553,-1.406c-0.296,-0.526 -0.444,-1.019 -0.444,-1.479c0,-0.822 0.337,-1.541 1.011,-2.157c0.674,-0.616 1.644,-0.924 2.909,-0.924c0.181,0 0.366,0 0.555,0c0.189,0 0.39,0.024 0.604,0.073l2.934,0.42l-1.578,2.465l-1.529,-1.504c-0.328,-0.148 -0.608,-0.222 -0.838,-0.222c-0.411,0 -0.752,0.123 -1.023,0.37c-0.271,0.247 -0.407,0.485 -0.407,0.715c0,0.23 0.082,0.464 0.247,0.703c0.164,0.238 0.435,0.464 0.813,0.678l2.934,1.577c0.444,0.23 0.83,0.567 1.159,1.011c0.328,0.444 0.493,0.978 0.493,1.603c0,0.953 -0.354,1.766 -1.06,2.44c-0.707,0.674 -1.775,1.011 -3.205,1.011c-0.28,0 -0.551,0 -0.814,0c-0.246,-0.049 -0.419,-0.082 -0.518,-0.099Z" style="fill:#cbcbcb;fill-rule:nonzero;"/><path d="M29.929,23.199l-8.949,0l1.479,-1.479l0,-8.135l-1.479,-1.48l5.843,0l-1.479,1.48l0,8.185l2.785,0l1.8,-1.8l0,3.229Z" style="fill:#cbcbcb;fill-rule:nonzero;"/><path d="M32.173,23.199l1.553,-1.553l3.846,-9.541l1.799,0l3.772,9.541l1.553,1.553l-5.966,0l1.43,-1.429l-0.542,-1.529l-3.452,0l-0.616,1.529l1.43,1.429l-4.807,0Zm5.744,-7.346l-1.184,2.958l2.318,0l-1.134,-2.958Z" style="fill:#cbcbcb;fill-rule:nonzero;"/><path d="M52.758,12.105l-1.43,1.43l1.874,3.057l1.898,-3.057l-1.43,-1.43l4.758,0l-1.528,1.529l-2.934,4.585l0,3.501l1.479,1.479l-5.818,0l1.479,-1.479l0,-3.476l-3.007,-4.61l-1.554,-1.529l6.213,0Z" style="fill:#cbcbcb;fill-rule:nonzero;"/></g><path d="M9.799,3.975l1.1,-0.508l1.691,-0.169l1.268,-0.169l3.214,-1.945l0.254,0l1.014,-0.338l0.508,0.169l3.213,1.099l1.184,0.93l2.622,-1.86l2.96,-1.099l1.522,-0.085l2.791,0.677l2.79,1.691l0.846,0.507l3.045,0.761l3.551,-0.422l3.975,0.93l1.015,0.169l1.691,0.93l-43.129,0.508l2.875,-1.776Z" style="fill:#3E5E53;"/></g></svg>