<?xml version="1.0" standalone="no"?>
<!DOCTYPE svg PUBLIC "-//W3C//DTD SVG 1.1//EN" "http://www.w3.org/Graphics/SVG/1.1/DTD/svg11.dtd" >
<svg xmlns="http://www.w3.org/2000/svg">
<metadata></metadata>
<defs>
<font id="RopaSansRegular" horiz-adv-x="1064" >
<font-face units-per-em="2048" ascent="1638" descent="-410" />
<missing-glyph horiz-adv-x="614" />
<glyph horiz-adv-x="0" />
<glyph horiz-adv-x="2048" />
<glyph horiz-adv-x="0" />
<glyph horiz-adv-x="0" />
<glyph horiz-adv-x="0" />
<glyph horiz-adv-x="0" />
<glyph horiz-adv-x="0" />
<glyph horiz-adv-x="0" />
<glyph horiz-adv-x="0" />
<glyph horiz-adv-x="0" />
<glyph unicode="&#x9;" horiz-adv-x="0" />
<glyph unicode="&#xd;" horiz-adv-x="614" />
<glyph horiz-adv-x="0" />
<glyph horiz-adv-x="0" />
<glyph horiz-adv-x="0" />
<glyph horiz-adv-x="0" />
<glyph horiz-adv-x="0" />
<glyph horiz-adv-x="0" />
<glyph horiz-adv-x="0" />
<glyph horiz-adv-x="0" />
<glyph horiz-adv-x="0" />
<glyph horiz-adv-x="0" />
<glyph unicode=" "  horiz-adv-x="614" />
<glyph unicode="&#x09;" horiz-adv-x="614" />
<glyph unicode="&#xa0;" horiz-adv-x="614" />
<glyph unicode="!" horiz-adv-x="432" d="M102 68v59q0 94 114 94t114 -94v-59q0 -92 -114 -92.5t-114 92.5zM119 1423h194l-14 -1013h-166z" />
<glyph unicode="&#x22;" horiz-adv-x="768" d="M154 879v520h174v-520h-174zM440 879v520h174v-520h-174z" />
<glyph unicode="#" d="M35 256v143h164v457h-164v143h164v256h174v-256h319v256h174v-256h164v-143h-164v-457h164v-143h-164v-256h-174v256h-319v-256h-174v256h-164zM373 399h319v457h-319v-457z" />
<glyph unicode="$" d="M152 903v10q0 150 71.5 234t239.5 102v174h153v-170q86 -6 224 -26l-4 -150q-165 29 -285 29q-225 0 -225 -176v-41q0 -76 22 -102q36 -45 133 -72l129 -39q175 -54 238 -126t63 -222v-11q0 -137 -65.5 -223t-229.5 -108v-179h-153v168q-84 3 -260 35l4 150 q166 -35 291 -35q239 0 239 176v41q0 69 -27 94q-45 43 -151 74l-127 39q-167 51 -222 120q-58 73 -58 234z" />
<glyph unicode="%" horiz-adv-x="1888" d="M133 866v62q0 158 81 242.5t243 84.5t241.5 -85t79.5 -242v-62q0 -158 -80 -242.5t-241 -84.5q-162 0 -243 85t-81 242zM307 866q0 -92 37 -133t112 -41t111.5 41t36.5 133v62q0 94 -37 134t-110 40q-150 0 -150 -174v-62zM520 0l686 1255h178l-686 -1255h-178zM1110 303 v62q0 158 81 242.5t243 84.5t241.5 -85t79.5 -242v-62q0 -158 -80 -243t-241 -85q-162 0 -243 85t-81 243zM1284 303q0 -92 37 -133t112 -41t111.5 41t36.5 133v62q0 94 -37 134t-110 40q-150 0 -150 -174v-62z" />
<glyph unicode="&#x26;" horiz-adv-x="1085" d="M72 332v45q0 115 61.5 200t177.5 119q-188 83 -188 297v45q0 143 96 233q101 95 283 95q97 0 241 -23l-4 -145q-122 23 -237 23q-209 0 -209 -197v-45q0 -104 64.5 -165.5t191.5 -61.5h207v149h168v-149h151v-142h-151v-583q-245 -52 -377.5 -52t-224 26t-147.5 73 q-103 86 -103 258zM246 330q0 -207 303 -207q95 0 207 27v460h-219q-150 0 -220.5 -60.5t-70.5 -164.5v-55z" />
<glyph unicode="'" horiz-adv-x="481" d="M154 879v520h174v-520h-174z" />
<glyph unicode="(" d="M334 133v1102q0 113 13 185.5t52 115.5t107.5 59.5t177.5 16.5v-148q-115 -8 -138.5 -30.5t-30.5 -50t-7 -72.5v-1223q0 -112 23.5 -138t58.5 -35t94 -11v-148q-109 0 -177.5 16.5t-107.5 59.5t-52 115.5t-13 185.5z" />
<glyph unicode=")" d="M379 -96q114 4 147 40q29 32 29 144v1223q0 87 -25.5 111t-60.5 31t-90 11v148q109 0 177.5 -16.5t105.5 -59.5q67 -76 67 -301v-1102q0 -225 -67 -301q-37 -43 -106 -59.5t-177 -16.5v148z" />
<glyph unicode="*" horiz-adv-x="839" d="M113 1149l47 135l209 -88l-21 227h141l-20 -229l211 90l47 -135l-227 -51l151 -172l-116 -84l-117 196l-117 -198l-115 86l152 174z" />
<glyph unicode="+" d="M168 543v145h287v311h155v-311h287v-145h-287v-312h-155v312h-287z" />
<glyph unicode="," horiz-adv-x="450" d="M113 -330l73 312q-72 16 -71 88v59q0 92 111.5 92t111.5 -92v-63q0 -59 -14 -105l-88 -291h-123z" />
<glyph unicode="-" horiz-adv-x="716" d="M133 539v133h451v-133h-451z" />
<glyph unicode="." horiz-adv-x="452" d="M113 68v59q0 94 113.5 94t113.5 -94v-59q0 -92 -114 -92.5t-113 92.5z" />
<glyph unicode="/" d="M236 0l419 1399h174l-419 -1399h-174z" />
<glyph unicode="0" d="M154 395v441q0 213 98 316t280 103t280.5 -103t98.5 -316v-441q0 -213 -98 -316.5t-281 -103.5q-182 0 -280 103.5t-98 316.5zM328 379q0 -256 204 -256q205 0 205 256v473q0 256 -204.5 256t-204.5 -256v-473z" />
<glyph unicode="1" d="M174 1096l332 135h153v-1081h230v-150h-666v150h262v913h-4l-272 -117z" />
<glyph unicode="2" d="M195 0v133l409 518q59 75 72 110q20 52 20 128v37q0 98 -50 140t-163 42t-258 -43v149q155 41 258 41q201 0 294 -79.5t93 -239.5v-45q0 -95 -24 -154q-43 -110 -146 -229l-297 -358h461v-150h-669z" />
<glyph unicode="3" d="M211 2v145q138 -26 250 -26t165.5 54t53.5 149v32q0 209 -215 209h-182v140h182q98 0 143 48t45 154v39q0 166 -184 166q-118 0 -258 -29v146q177 26 258 26q176 0 267 -84t91 -235v-21q0 -195 -157 -272q86 -35 135 -112.5t49 -176.5v-20q0 -251 -214 -332 q-71 -27 -158 -27t-271 27z" />
<glyph unicode="4" d="M104 356l281 875h158l-258 -823h356v413h168v-413h152v-144h-152v-264h-170v264h-489z" />
<glyph unicode="5" d="M168 504v733h631v-150h-457v-395q115 90 262 90t220 -79.5t73 -268.5v-74q0 -385 -399 -385q-136 0 -310 45v142q91 -20 185 -29.5t121 -9.5q229 0 229 237v80q0 197 -152 197q-82 0 -144 -31t-126 -102h-133z" />
<glyph unicode="6" d="M154 365v376q0 242 161.5 369t487.5 131v-149q-258 -4 -366.5 -85t-108.5 -233v-115q145 138 281 138t219 -88t83 -275v-80q0 -186 -97 -282.5t-284 -96.5q-186 0 -281 101.5t-95 288.5zM328 354q0 -231 202 -231q207 0 207 221v96q0 205 -174 205q-87 0 -235 -133v-158z " />
<glyph unicode="7" d="M162 1079v150h739v-119l-459 -1110h-186l459 1075v4h-553z" />
<glyph unicode="8" d="M133 334v31q0 213 182 292q-129 76 -129 265v10q0 156 93.5 239.5t252.5 83.5q160 0 253.5 -82.5t93.5 -240.5v-10q0 -188 -129 -265q182 -85 182 -292v-31q0 -168 -101.5 -263.5t-297.5 -95.5t-298 94.5t-102 264.5zM307 317q0 -88 57.5 -142t167.5 -54q111 0 168.5 54 t57.5 142v52q0 106 -60.5 162.5t-166 56.5t-165 -57.5t-59.5 -161.5v-52zM356 903q0 -96 40 -138t137 -42t136.5 42t39.5 138v39q0 178 -176.5 178t-176.5 -178v-39z" />
<glyph unicode="9" d="M154 795v79q0 184 95 281.5t286 97.5q376 0 376 -389v-438q0 -238 -104.5 -344.5t-312.5 -106.5q-71 0 -159.5 14.5t-105.5 18.5v146q206 -33 265 -33q123 0 183 66.5t60 226.5v155q-143 -137 -282 -137t-220 90t-81 273zM328 788q0 -204 174 -204q87 0 235 133v157 q0 231 -202 232q-207 0 -207 -221v-97z" />
<glyph unicode=":" horiz-adv-x="452" d="M113 68v59q0 94 113.5 94t113.5 -94v-59q0 -92 -114 -92.5t-113 92.5zM113 871v59q0 94 113.5 94t113.5 -94v-59q0 -92 -114 -92.5t-113 92.5z" />
<glyph unicode=";" horiz-adv-x="452" d="M113 -330l73 312q-72 16 -71 88v59q0 92 111.5 92t111.5 -92v-63q0 -59 -14 -105l-88 -291h-123zM113 871v59q0 94 113.5 94t113.5 -94v-59q0 -92 -114 -92.5t-113 92.5z" />
<glyph unicode="&#x3c;" d="M164 530v154l737 328v-170l-565 -234l565 -235v-170z" />
<glyph unicode="=" d="M170 369v143h725v-143h-725zM170 719v143h725v-143h-725z" />
<glyph unicode="&#x3e;" d="M164 203v170l565 235l-565 234v170l737 -328v-154z" />
<glyph unicode="?" horiz-adv-x="808" d="M51 1247v144q155 32 268 32q205 0 291 -74.5t86 -207.5v-51q0 -92 -41 -175.5t-137 -183.5l-67 -74q-46 -46 -53 -102q-3 -23 -3 -53v-92h-166v65q0 94 11 132q17 53 71 118l119 139q76 87 88 168q4 27 4 62v45q0 74 -44 109.5t-160 35.5t-267 -37zM203 68v59 q0 94 113.5 94t113.5 -94v-59q0 -92 -114 -92.5t-113 92.5z" />
<glyph unicode="@" horiz-adv-x="1966" d="M154 385v205q0 382 196 600q210 233 628.5 233t626 -195.5t207.5 -576.5v-102q0 -231 -116 -371q-120 -147 -320 -147q-117 0 -181.5 50t-76.5 142q-72 -88 -154.5 -140t-160.5 -52q-115 0 -174.5 67.5t-59.5 194.5q0 41 6 80l37 282q23 168 110 256t211.5 88t252.5 -110 l10 84h164l-82 -649q-4 -20 -4 -41q0 -99 104 -99q109 0 184 103q76 106 76 262v102q0 617 -675 617q-301 0 -468 -174t-167 -504v-205q0 -299 158.5 -453.5t476.5 -154.5h276v-156h-276q-809 0 -809 764zM745 330q0 -144 111 -144q59 0 127 47.5t127 139.5l45 370 q-37 45 -91 73t-112.5 28t-106.5 -50.5t-63 -162.5l-30 -236q-6 -37 -7 -65z" />
<glyph unicode="A" horiz-adv-x="1097" d="M31 0l409 1341h215l412 -1341h-188l-88 311h-494l-88 -311h-178zM340 467h405l-200 715z" />
<glyph unicode="B" horiz-adv-x="1081" d="M154 -12v1370q144 8 362.5 8t328 -91t109.5 -237v-45q0 -215 -188 -297q115 -25 179.5 -104.5t64.5 -200.5v-45q0 -262 -266 -343q-91 -28 -216 -28h-84q-53 0 -290 13zM328 139q123 -12 155 -12h45q164 0 236 62.5t72 166.5v43q0 211 -295 211h-213v-471zM328 752h200 q125 0 188.5 59t63.5 166v35q0 98 -66.5 151.5t-226.5 53.5q-74 0 -159 -7v-458z" />
<glyph unicode="C" horiz-adv-x="974" d="M143 389v563q0 209 98.5 311.5t338.5 102.5q70 0 142.5 -11.5t139.5 -21.5l-4 -153q-163 32 -291 32t-189 -56t-61 -191v-586q0 -133 60.5 -189.5t186.5 -56.5t294 33l4 -158q-68 -10 -140.5 -21.5t-167.5 -11.5t-179 26t-135 78q-97 97 -97 310z" />
<glyph unicode="D" horiz-adv-x="1169" d="M154 -12v1370q140 8 379 8t371 -137t132 -400v-335q0 -250 -130 -384.5t-388 -134.5q-156 0 -364 13zM328 137q119 -12 190 -12q154 0 249 89t95 265v363q0 190 -92 283.5t-252 93.5q-112 0 -190 -5v-1077z" />
<glyph unicode="E" horiz-adv-x="993" d="M154 0v1341h706v-157h-532v-424h491v-156h-491v-446h532v-158h-706z" />
<glyph unicode="F" horiz-adv-x="993" d="M154 0v1341h706v-157h-532v-424h401v-156h-401v-604h-174z" />
<glyph unicode="G" horiz-adv-x="1146" d="M143 389v563q0 217 102.5 315.5t334.5 98.5q105 0 212 -19.5t142 -25.5l-4 -150q-222 46 -357.5 46t-195.5 -57.5t-60 -188.5v-594q0 -131 59.5 -189.5t180.5 -58.5t262 29v452h-256v164h430v-723q-243 -77 -425 -77q-107 0 -193 27q-164 51 -209 208q-23 78 -23 180z " />
<glyph unicode="H" horiz-adv-x="1187" d="M154 0v1341h174v-571h532v571h174v-1341h-174v614h-532v-614h-174z" />
<glyph unicode="I" horiz-adv-x="481" d="M154 0v1341h174v-1341h-174z" />
<glyph unicode="J" horiz-adv-x="638" d="M41 -10v145q40 -10 121 -10t115 29.5t34 99.5v1087h174v-1056q0 -158 -73.5 -234t-239.5 -76q-78 0 -131 15z" />
<glyph unicode="K" horiz-adv-x="1126" d="M154 0v1341h174v-647l499 647h195l-514 -649l567 -692h-223l-524 664v-664h-174z" />
<glyph unicode="L" horiz-adv-x="911" d="M154 0v1341h174v-1187h532v-154h-706z" />
<glyph unicode="M" horiz-adv-x="1431" d="M143 0l13 1341h258l303 -1046l301 1046h258l12 -1341h-170l-10 1102l-285 -963h-215l-284 963l-11 -1102h-170z" />
<glyph unicode="N" horiz-adv-x="1191" d="M154 0v1341h278l434 -1132v1132h172v-1341h-270l-442 1133v-1133h-172z" />
<glyph unicode="O" horiz-adv-x="1179" d="M143 416v510q0 440 447 440q340 0 420 -258q26 -82 26 -182v-510q0 -441 -446 -441q-338 0 -421 257q-26 81 -26 184zM317 397q0 -131 69 -199.5t204 -68.5t203.5 68.5t68.5 199.5v547q0 129 -67.5 198.5t-204.5 69.5t-205 -68.5t-68 -197.5v-549z" />
<glyph unicode="P" horiz-adv-x="1032" d="M154 0v1356q195 10 354 10q246 0 359.5 -98.5t113.5 -274.5v-49q0 -186 -110.5 -292.5t-346.5 -106.5q-102 0 -196 16v-561h-174zM328 711q119 -17 188 -17q291 0 291 258v35q0 115 -71.5 174.5t-207.5 59.5t-200 -4v-506z" />
<glyph unicode="Q" horiz-adv-x="1179" d="M143 416v510q0 440 447 440q340 0 420 -258q26 -82 26 -182v-506q0 -141 -43 -231.5t-135 -141.5l219 -59l4 -162h-39l-401 151q-12 -2 -25 -2h-24q-340 0 -423 257q-26 81 -26 184zM317 397q0 -131 69 -199.5t204 -68.5q272 0 272 279v536q0 129 -67.5 198.5 t-204.5 69.5t-205 -68.5t-68 -197.5v-549z" />
<glyph unicode="R" horiz-adv-x="1122" d="M154 0v1358q172 8 354 8q469 0 469 -356v-54q0 -108 -67 -208q-65 -99 -181 -142l342 -606h-194l-324 573h-127q-43 0 -98 5v-578h-174zM328 733q140 -8 182 -8q293 0 293 236v38q0 111 -68.5 166.5t-230.5 55.5q-94 0 -176 -4v-484z" />
<glyph unicode="S" horiz-adv-x="933" d="M92 983v23q0 174 93.5 267t306.5 93q119 0 286 -33l-4 -153q-165 32 -285 32t-171.5 -48t-51.5 -142v-53q0 -73 24 -101q37 -42 142 -75l191 -64q138 -47 193 -124q56 -78 56 -228v-39q0 -183 -101 -269q-110 -94 -349 -94q-114 0 -299 41l4 158q172 -41 310.5 -41 t199.5 48t61 143v67q0 72 -30.5 110t-112.5 64l-211 70q-144 46 -196 121q-56 80 -56 227z" />
<glyph unicode="T" horiz-adv-x="1054" d="M51 1184v157h953v-157h-390v-1184h-174v1184h-389z" />
<glyph unicode="U" horiz-adv-x="1179" d="M154 420v921h174v-944q0 -135 68.5 -201.5t193.5 -66.5t193.5 66.5t68.5 201.5v944h174v-917q0 -217 -108.5 -333t-324.5 -116t-327.5 111t-111.5 334z" />
<glyph unicode="V" horiz-adv-x="1085" d="M31 1341h184l328 -1173l327 1173h185l-398 -1341h-229z" />
<glyph unicode="W" horiz-adv-x="1736" d="M51 1341h185l245 -1151l269 1151h237l270 -1151l244 1151h185l-306 -1341h-233l-279 1143l-276 -1143h-234z" />
<glyph unicode="X" horiz-adv-x="1071" d="M31 0l393 692l-369 649h209l281 -512l280 512h193l-365 -653l387 -688h-211l-299 549l-299 -549h-200z" />
<glyph unicode="Y" horiz-adv-x="1013" d="M31 1341h198l279 -696l280 696h195l-389 -880v-461h-174v461z" />
<glyph unicode="Z" horiz-adv-x="1013" d="M92 0v137l606 1047h-594v157h797v-137l-606 -1046h606v-158h-809z" />
<glyph unicode="[" d="M322 -238v1844h419v-144h-245v-1556h245v-144h-419z" />
<glyph unicode="\" d="M236 1399h174l419 -1399h-174z" />
<glyph unicode="]" d="M322 -94h245v1556h-245v144h419v-1844h-419v144z" />
<glyph unicode="^" horiz-adv-x="1013" d="M133 825l297 574h154l297 -574h-170l-205 412l-203 -412h-170z" />
<glyph unicode="_" horiz-adv-x="1249" d="M133 -246h983v-133h-983v133z" />
<glyph unicode="`" horiz-adv-x="788" d="M219 1403h174l156 -285h-135z" />
<glyph unicode="a" horiz-adv-x="960" d="M113 281v57q0 127 83 206q87 83 226 83q84 0 211 -27v109q0 92 -40 128.5t-122.5 36.5t-277.5 -30v149q211 31 276 31q176 0 257 -78t81 -252v-694h-166v160q-121 -184 -268 -185q-117 0 -188.5 81t-71.5 225zM289 293q0 -78 35 -120t88 -42t112.5 47t108.5 137v158 q-72 14 -163 14t-136 -46t-45 -126v-22z" />
<glyph unicode="b" horiz-adv-x="1005" d="M154 348v1051h174v-533q110 158 268 158q127 0 196.5 -87t69.5 -261v-324q0 -186 -86 -281.5t-272 -95.5t-268 93.5t-82 279.5zM328 328q0 -102 47 -154.5t127 -52.5q186 0 186 211v319q0 217 -133 217q-59 0 -120.5 -45t-106.5 -123v-372z" />
<glyph unicode="c" horiz-adv-x="827" d="M143 348v303q0 373 371 373q65 0 201 -20l-4 -154q-106 20 -200.5 20t-144 -53t-49.5 -151v-330q0 -104 52.5 -155.5t145.5 -51.5t196 21l4 -154q-143 -21 -201 -21q-193 0 -282 95.5t-89 277.5z" />
<glyph unicode="d" horiz-adv-x="1005" d="M143 317v365q0 160 74 251t215 91q105 0 246 -102v477h174v-1399h-166v162q-120 -187 -280 -187q-127 0 -195 86t-68 256zM317 340q0 -209 129 -209q59 0 121 47t111 137v451q-43 45 -101.5 73.5t-105.5 28.5q-154 0 -154 -211v-317z" />
<glyph unicode="e" horiz-adv-x="956" d="M143 336v321q0 367 349 367q174 0 263 -93t89 -274v-211h-527v-120q0 -104 49.5 -150.5t164.5 -46.5t282 37l-8 -154q-210 -37 -281 -37q-207 0 -294 89.5t-87 271.5zM317 586h353v92q0 102 -49.5 151.5t-128 49.5t-127 -49.5t-48.5 -145.5v-98z" />
<glyph unicode="f" horiz-adv-x="681" d="M72 856v143h143v105q4 319 307 319q59 0 129 -14v-139q-73 10 -129.5 10t-94.5 -38t-38 -112v-131h184v-143h-184v-856h-174v856h-143z" />
<glyph unicode="g" horiz-adv-x="995" d="M82 207v41q0 94 92 164q-65 76 -65 247v46q0 141 87 230t265 89q91 0 164 -27l319 4v-153l-174 6q41 -59 41 -156v-45q0 -150 -90 -238q-95 -93 -260 -93q-106 0 -174 20q-45 -39 -45 -82v-12q0 -63 100 -70l305 -22q94 -8 152.5 -69.5t58.5 -158.5v-75q0 -134 -81 -190 q-95 -66 -337 -66q-132 0 -299 36l-6 158q141 -49 305 -49q154 0 205 30q27 15 35 40.5t8 64.5v19q0 96 -98 102l-307 20q-98 6 -149.5 56.5t-51.5 132.5zM283 641q0 -109 32.5 -141.5t133.5 -32.5q188 0 188 174v61q0 84 -25 150q-62 27 -151 27q-178 0 -178 -170v-68z" />
<glyph unicode="h" horiz-adv-x="1005" d="M154 0v1399h174v-533q110 158 252 158q282 0 282 -342v-682h-174v657q0 205 -133 205q-59 0 -120.5 -45t-106.5 -123v-694h-174z" />
<glyph unicode="i" horiz-adv-x="501" d="M137 1270v59q0 94 114 94t114 -94v-59q0 -92 -114 -92t-114 92zM164 0v999h174v-999h-174z" />
<glyph unicode="j" horiz-adv-x="481" d="M-109 -246q64 -8 132 -8q131 0 131 145v1108h174v-1097q0 -154 -75 -229.5t-239 -75.5q-78 0 -123 12v145zM127 1270v59q0 94 114 94t113 -94v-59q0 -92 -113.5 -92t-113.5 92z" />
<glyph unicode="k" horiz-adv-x="925" d="M154 0v1399h174v-838l327 438h195l-340 -438l364 -561h-208l-338 537v-537h-174z" />
<glyph unicode="l" horiz-adv-x="481" d="M154 0v1399h174v-1399h-174z" />
<glyph unicode="m" horiz-adv-x="1519" d="M154 0v999h163v-149q110 174 269 174q188 0 245 -188q112 188 279 188q129 0 197.5 -88t68.5 -254v-682h-174v657q0 205 -127 205q-57 0 -117.5 -45t-105.5 -123v-694h-174v657q0 205 -127 205q-57 0 -117.5 -45t-105.5 -123v-694h-174z" />
<glyph unicode="n" horiz-adv-x="1005" d="M154 0v999h163v-149q110 174 273 174q131 0 201.5 -88t70.5 -254v-682h-174v657q0 111 -37 158t-96 47t-120.5 -45t-106.5 -123v-694h-174z" />
<glyph unicode="o" horiz-adv-x="1007" d="M143 348v303q0 174 86 273.5t275 99.5q188 0 274 -99.5t86 -273.5v-303q0 -174 -86 -273.5t-274 -99.5t-274.5 99.5t-86.5 273.5zM317 334q0 -104 49.5 -158.5t137.5 -54.5t137 54t49 159v334q0 104 -49 157.5t-137 53.5t-137.5 -54.5t-49.5 -158.5v-332z" />
<glyph unicode="p" horiz-adv-x="1003" d="M154 -379v1378h163v-145q110 170 271 170q129 0 200.5 -86t71.5 -256v-365q0 -162 -83 -252t-224 -90q-105 0 -225 72v-426h-174zM328 203q95 -74 190 -74q168 0 168 213v315q0 211 -133 211q-59 0 -119.5 -43t-105.5 -120v-502z" />
<glyph unicode="q" horiz-adv-x="1005" d="M143 317v365q0 160 74 251t215 91q108 0 254 -109v84h166v-1378h-174v529q-120 -175 -272 -175q-127 0 -195 86t-68 256zM317 340q0 -209 129 -209q59 0 121 47t111 137v451q-43 45 -101.5 73.5t-105.5 28.5q-154 0 -154 -211v-317z" />
<glyph unicode="r" horiz-adv-x="706" d="M154 0v999h163v-149q110 174 273 174q29 0 45 -4v-197q-24 6 -80 6q-142 0 -227 -143v-686h-174z" />
<glyph unicode="s" horiz-adv-x="796" d="M92 713v26q0 141 79 213t267 72q103 0 215 -25l-4 -147q-109 25 -210.5 25t-138 -30t-36.5 -91v-17q0 -41 20.5 -63.5t73.5 -44.5l193 -80q90 -37 137 -100.5t47 -139.5v-49q0 -141 -81 -214t-275 -73q-117 0 -260 33l4 154q131 -33 249 -33t154.5 27.5t36.5 89.5v28 q0 93 -88 127l-199 78q-184 70 -184 234z" />
<glyph unicode="t" horiz-adv-x="702" d="M31 856v143h143l33 267h141v-267h266v-143h-266v-586q0 -78 33 -111.5t111.5 -33.5t158.5 16v-145q-92 -21 -164 -21q-162 0 -237.5 72t-75.5 238v571h-143z" />
<glyph unicode="u" horiz-adv-x="1015" d="M154 317v682h174v-651q0 -113 36.5 -162t96.5 -49q59 0 119.5 44t107.5 122v696h174v-999h-164v143q-113 -168 -272 -168q-125 0 -198.5 84t-73.5 258z" />
<glyph unicode="v" horiz-adv-x="905" d="M31 999h184l238 -872l237 872h184l-309 -999h-227z" />
<glyph unicode="w" horiz-adv-x="1409" d="M51 999h185l155 -845l201 845h225l199 -845l158 845h184l-225 -999h-220l-208 848l-211 -848h-220z" />
<glyph unicode="x" horiz-adv-x="944" d="M51 0l309 516l-288 483h198l201 -356l201 356h198l-288 -483l311 -516h-199l-223 389l-221 -389h-199z" />
<glyph unicode="y" horiz-adv-x="913" d="M31 999h190l215 -874l266 874h181l-459 -1378h-174l131 379h-66z" />
<glyph unicode="z" horiz-adv-x="872" d="M92 0v133l459 713h-449v153h658v-133l-457 -712h457v-154h-668z" />
<glyph unicode="{" d="M242 612v144h51q74 0 103.5 33.5t29.5 130.5v370q0 193 71 257q72 65 279 65v-144q-106 0 -134 -22.5t-35 -51t-7 -75.5v-399q0 -104 -28.5 -159.5t-90.5 -76.5q63 -23 91 -77t28 -158v-367q0 -116 24.5 -142t59.5 -33t92 -7v-144q-204 0 -277 69t-73 263v361 q0 94 -29.5 128.5t-103.5 34.5h-51z" />
<glyph unicode="|" d="M444 -229v1863h174v-1863h-174z" />
<glyph unicode="}" d="M287 -100q114 0 145 34q31 32 31 148v367q0 104 27.5 158.5t91.5 76.5q-61 20 -90 75.5t-29 160.5v399q0 93 -35 121t-141 28v144q207 0 279 -65q71 -64 71 -257v-370q0 -96 29.5 -130t103.5 -34h51v-144h-51q-74 0 -103.5 -34.5t-29.5 -128.5v-361q0 -194 -73 -263 t-277 -69v144z" />
<glyph unicode="~" d="M170 520v144q42 27 101 42t109 15t87 -9.5t71 -19.5q93 -28 139 -28q74 0 128.5 17t89.5 34v-144q-42 -27 -101 -42t-109 -15t-87 9t-70 19q-88 29 -137 29q-71 0 -128.5 -18t-92.5 -33z" />
<glyph unicode="&#xa1;" horiz-adv-x="432" d="M102 917q0 -94 114 -94t114 94v59q0 92 -114 92.5t-114 -92.5v-59zM119 -379h194l-14 1013h-166z" />
<glyph unicode="&#xa2;" d="M246 348v303q0 314 266 363v166h154v-158q57 -3 151 -18l-4 -154q-106 20 -197 20q-196 0 -196 -204v-330q0 -104 52 -155.5t146 -51.5t195 21l4 -154q-83 -13 -151 -19v-157h-154v166q-266 45 -266 362z" />
<glyph unicode="&#xa3;" d="M145 625v143h144v168q0 164 83 241.5t259 77.5q92 0 194 -30v-140q-84 27 -181.5 27t-139 -40t-41.5 -126v-178h194v-143h-194v-248q0 -159 -84 -225h539v-152h-711v123q82 101 82 217v285h-144z" />
<glyph unicode="&#xa4;" d="M92 305l127 125q-47 84 -47 191v41q0 102 39 178l-119 116l115 115l110 -113q88 53 212 53.5t214 -57.5l115 117l115 -115l-125 -122q35 -72 35 -172v-41q0 -105 -43 -185l133 -131l-115 -115l-127 129q-84 -49 -202 -49t-199 45l-123 -125zM340 621q0 -86 43 -144.5 t145 -58.5t144.5 58.5t42.5 144.5v41q0 84 -42 142t-145 58q-102 0 -145 -57t-43 -143v-41z" />
<glyph unicode="&#xa5;" d="M55 1231h195l282 -658l281 658h195l-330 -701h133v-143h-193v-84h193v-143h-193v-160h-174v160h-194v143h194v84h-194v143h135z" />
<glyph unicode="&#xa6;" d="M444 -236v805h174v-805h-174zM444 836v804h174v-804h-174z" />
<glyph unicode="&#xa7;" horiz-adv-x="825" d="M31 549v49q0 106 57 180q55 72 143 84q-61 23 -100 80t-39 139v58q0 141 77 212.5t265 71.5q98 0 213 -24l-4 -146q-110 25 -205.5 25t-131.5 -29.5t-36 -93.5v-68q0 -43 18.5 -68.5t65.5 -43.5l219 -84q222 -84 222 -246v-63q0 -92 -50.5 -161t-142.5 -87q59 -23 95 -79 t36 -134v-78q0 -143 -82 -215t-276 -72q-104 0 -252 31l4 154q137 -31 245.5 -31t145.5 26.5t37 90.5v67q0 53 -18.5 84t-65.5 47l-219 76q-121 41 -171 98.5t-50 149.5zM209 551q0 -35 25.5 -59.5t99.5 -49.5l94 -30q94 4 141 50t47 116v47q0 90 -124 127l-76 22 q-102 -2 -154.5 -51t-52.5 -121v-51z" />
<glyph unicode="&#xa8;" horiz-adv-x="882" d="M154 1272v59q0 92 111.5 92t111.5 -92v-59q0 -90 -113 -90q-53 0 -81.5 23.5t-28.5 66.5zM506 1272v59q0 92 111.5 92t111.5 -92v-59q0 -90 -112 -90t-111 90z" />
<glyph unicode="&#xa9;" horiz-adv-x="1323" d="M143 403v424q0 306 282 402q97 33 235.5 33t236.5 -33t161 -91q122 -112 122 -311v-424q0 -306 -283 -401q-98 -33 -236 -33t-235.5 33t-161.5 92q-121 111 -121 309zM289 381q0 -123 96 -200t277 -77q180 0 276 77t96 200v471q0 123 -96 198.5t-276 75.5t-276.5 -76.5 t-96.5 -199.5v-469zM408 567v115q0 301 282 301q74 0 160 -14l-4 -135q-98 10 -153 10q-120 0 -120 -162v-113q0 -84 32 -125t83 -41t158 11l4 -135q-99 -15 -160 -15q-283 0 -282 303z" />
<glyph unicode="&#xaa;" d="M184 0v150h695v-150h-695zM184 713v57q0 112 81 184q86 76 229 76q86 0 211 -26v53q0 92 -40 129t-116 37t-285 -31v143q211 31 277 31q176 0 257 -78t81 -252v-573h-166v160q-121 -184 -269 -185q-119 0 -189.5 74t-70.5 201zM360 725q0 -61 35 -96t88 -35t112.5 35 t109.5 121v127q-72 14 -163 14t-136.5 -39t-45.5 -104v-23z" />
<glyph unicode="&#xab;" horiz-adv-x="999" d="M133 651l205 348h180l-190 -348l190 -348h-180zM481 651l205 348h180l-190 -348l190 -348h-180z" />
<glyph unicode="&#xac;" d="M162 543v143h739v-455h-156v312h-583z" />
<glyph unicode="&#xad;" horiz-adv-x="716" d="M133 539v133h451v-133h-451z" />
<glyph unicode="&#xae;" horiz-adv-x="1097" d="M154 981v70q0 172 90 272t305 100t305 -100t90 -272v-70q0 -172 -90 -272.5t-305 -100.5t-305 100.5t-90 272.5zM258 963q0 -127 66.5 -192.5t224.5 -65.5t224.5 65.5t66.5 192.5v108q0 129 -66.5 192.5t-224.5 63.5t-224.5 -65.5t-66.5 -192.5v-106zM399 780v477 q103 5 152 5q186 0 186 -144v-22q0 -43 -25.5 -77t-68.5 -52l111 -187h-103l-98 172h-66v-172h-88zM487 1036q23 -2 41 -2h33q86 0 86 64v18q0 33 -20.5 48.5t-67 15.5t-72.5 -4v-140z" />
<glyph unicode="&#xaf;" horiz-adv-x="788" d="M174 1241v154h440v-154h-440z" />
<glyph unicode="&#xb0;" horiz-adv-x="1228" d="M158 1024v45q0 354 340 354q338 0 338 -354v-45q0 -354 -338 -354q-340 0 -340 354zM324 1024q0 -209 173 -209t173 209v45q0 209 -172 209q-174 0 -174 -209v-45z" />
<glyph unicode="&#xb1;" d="M166 0v143h729v-143h-729zM168 543v145h287v311h155v-311h287v-145h-287v-312h-155v312h-287z" />
<glyph unicode="&#xb2;" horiz-adv-x="798" d="M137 371v123l303 348q57 66 60.5 95.5t3.5 51.5v33q0 49 -33 72.5t-126 23.5t-189 -35v134q117 32 200 32q162 0 232.5 -57t70.5 -164v-37q0 -70 -26.5 -130t-102.5 -142l-198 -213h330v-135h-525z" />
<glyph unicode="&#xb3;" horiz-adv-x="798" d="M152 373v125q116 -17 202 -17q131 0 131 115v27q0 66 -34.5 98.5t-120.5 32.5h-119v120h119q78 0 108.5 31t30.5 96v27q0 51 -28.5 73.5t-90 22.5t-198.5 -20v127q115 18 194 18q143 0 212 -59.5t69 -161.5v-14q0 -68 -29 -113t-94 -76q143 -59 143 -207v-14 q0 -111 -74.5 -180.5t-222.5 -69.5q-77 0 -198 19z" />
<glyph unicode="&#xb4;" horiz-adv-x="636" d="M154 1118l155 285h174l-194 -285h-135z" />
<glyph unicode="&#xb5;" d="M178 -379v1378h174v-651q0 -113 37 -162t96 -49t120 44t108 122v696h174v-999h-164v143q-113 -168 -252 -168q-74 0 -119 29v-383h-174z" />
<glyph unicode="&#xb6;" horiz-adv-x="1118" d="M41 887v260q0 117 62.5 184.5t191.5 67.5h278v-1778h-176v1020h-102q-254 0 -254 246zM209 938q0 -82 24.5 -112.5t81.5 -30.5h82v454h-82q-57 0 -81.5 -29.5t-24.5 -113.5v-168zM788 -379v1778h177v-1778h-177z" />
<glyph unicode="&#xb7;" horiz-adv-x="452" d="M113 480v59q0 94 113.5 94t113.5 -94v-59q0 -92 -114 -92.5t-113 92.5z" />
<glyph unicode="&#xb8;" horiz-adv-x="612" d="M94 -285q46 -8 74 -8q84 0 84 49v27q-2 31 -18.5 42t-51.5 11h-61v43l55 178h129l-43 -141h21q43 0 74.5 -36t31.5 -95v-31q0 -158 -194 -157q-29 0 -101 10v108z" />
<glyph unicode="&#xb9;" horiz-adv-x="798" d="M119 1135l262 98h133v-727h164v-135h-516v135h188v571l-200 -80z" />
<glyph unicode="&#xba;" d="M172 813v180q0 373 360 373q361 0 361 -373v-180q0 -373 -361 -373q-176 0 -268 93.5t-92 279.5zM182 0v150h701v-150h-701zM346 799q0 -104 49 -158.5t137 -54.5t137.5 54t49.5 159v211q0 104 -49 157.5t-138 53.5q-88 0 -137 -54.5t-49 -158.5v-209z" />
<glyph unicode="&#xbb;" horiz-adv-x="999" d="M133 303l191 348l-191 348h180l205 -348l-205 -348h-180zM481 303l191 348l-191 348h181l204 -348l-204 -348h-181z" />
<glyph unicode="&#xbc;" horiz-adv-x="2086" d="M119 1135l262 98h133v-727h164v-135h-516v135h188v571l-200 -80zM637 0l625 1231h170l-625 -1231h-170zM1356 270l213 592h147l-190 -547h223v271h156v-271h114v-131h-114v-184h-158v184h-350z" />
<glyph unicode="&#xbd;" horiz-adv-x="2070" d="M119 1135l262 98h133v-727h164v-135h-516v135h188v571l-200 -80zM637 0l625 1231h170l-625 -1231h-170zM1409 0v123l303 348q57 66 60.5 95.5t3.5 51.5v33q0 49 -33 73t-123.5 24t-192.5 -35v133q120 33 201 33q162 0 232.5 -57.5t70.5 -164.5v-36q0 -70 -26.5 -130.5 t-102.5 -142.5l-198 -213h329v-135h-524z" />
<glyph unicode="&#xbe;" horiz-adv-x="2048" d="M152 373v125q116 -17 202 -17q131 0 131 115v27q0 66 -34.5 98.5t-120.5 32.5h-119v120h119q78 0 108.5 31t30.5 96v27q0 51 -28.5 73.5t-90 22.5t-198.5 -20v127q115 18 194 18q143 0 212 -59.5t69 -161.5v-14q0 -68 -29 -113t-94 -76q143 -59 143 -207v-14 q0 -111 -74.5 -180.5t-222.5 -69.5q-77 0 -198 19zM598 0l625 1231h170l-625 -1231h-170zM1317 270l213 592h147l-190 -547h223v271h156v-271h114v-131h-114v-184h-158v184h-350z" />
<glyph unicode="&#xbf;" horiz-adv-x="808" d="M113 -70q0 92 41 175.5t137 183.5l67 74q46 46 53 102q3 23 3 53v92h166v-65q0 -94 -11 -132q-17 -53 -71 -118l-119 -139q-76 -87 -88 -168q-4 -27 -4 -62v-45q0 -74 44 -109.5t160 -35.5t267 37v-144q-155 -32 -268 -32q-205 0 -291 74.5t-86 207.5v51zM379 893v59 q0 92 114 92.5t113 -92.5v-59q0 -94 -113.5 -94t-113.5 94z" />
<glyph unicode="&#xc0;" horiz-adv-x="1097" d="M31 0l409 1341h215l412 -1341h-188l-88 311h-494l-88 -311h-178zM340 467h405l-200 715zM340 1698h182l135 -244h-143z" />
<glyph unicode="&#xc1;" horiz-adv-x="1097" d="M31 0l409 1341h215l412 -1341h-188l-88 311h-494l-88 -311h-178zM340 467h405l-200 715zM420 1454l135 244h182l-174 -244h-143z" />
<glyph unicode="&#xc2;" horiz-adv-x="1097" d="M31 0l409 1341h215l412 -1341h-188l-88 311h-494l-88 -311h-178zM266 1456v139l287 125l287 -125v-139l-287 100zM340 467h405l-200 715z" />
<glyph unicode="&#xc3;" horiz-adv-x="1097" d="M31 0l409 1341h215l412 -1341h-188l-88 311h-494l-88 -311h-178zM266 1454v143q23 16 47 31q71 31 114.5 31t77.5 -8.5t63 -17.5q79 -25 112 -25q73 0 160 51v-143q-79 -62 -164 -62q-44 0 -101 18q-109 33 -159.5 33t-149.5 -51zM340 467h405l-200 715z" />
<glyph unicode="&#xc4;" horiz-adv-x="1097" d="M31 0l409 1341h215l412 -1341h-188l-88 311h-494l-88 -311h-178zM258 1544v60q0 92 111.5 92t111.5 -92v-60q0 -90 -113 -90q-53 0 -81.5 23.5t-28.5 66.5zM340 467h405l-200 715zM610 1544v60q0 92 111.5 92t111.5 -92v-60q0 -90 -112 -90t-111 90z" />
<glyph unicode="&#xc5;" horiz-adv-x="1097" d="M31 0l383 1255q-101 49 -101 166t63.5 167t171 50t172 -50t64.5 -154q0 -131 -102 -181l385 -1253h-188l-88 311h-494l-88 -311h-178zM340 467h405l-200 715zM446 1434q0 -93 103 -93q102 0 102 93q0 92 -102 92q-103 0 -103 -92z" />
<glyph unicode="&#xc6;" horiz-adv-x="1585" d="M31 0l600 1341h821v-157h-532v-424h491v-156h-491v-446h532v-158h-707v311h-397l-135 -311h-182zM416 467h329v756z" />
<glyph unicode="&#xc7;" horiz-adv-x="974" d="M143 389v563q0 209 98.5 311.5t338.5 102.5q70 0 142.5 -11.5t139.5 -21.5l-4 -153q-163 32 -291 32t-189 -56t-61 -191v-586q0 -133 60.5 -189.5t186.5 -56.5t294 33l4 -158q-151 -25 -256 -33l-18 -59h20q43 0 75 -36t32 -95v-31q0 -158 -195 -157q-28 0 -100 10v108 q46 -8 74 -8q84 0 84 49v27q-2 31 -18.5 42t-51.5 11h-62v43l31 103q-184 20 -259 122.5t-75 284.5z" />
<glyph unicode="&#xc8;" horiz-adv-x="993" d="M154 0v1341h706v-157h-532v-424h491v-156h-491v-446h532v-158h-706zM328 1698h182l135 -244h-143z" />
<glyph unicode="&#xc9;" horiz-adv-x="993" d="M154 0v1341h706v-157h-532v-424h491v-156h-491v-446h532v-158h-706zM400 1454l135 244h182l-174 -244h-143z" />
<glyph unicode="&#xca;" horiz-adv-x="993" d="M154 0v1341h706v-157h-532v-424h491v-156h-491v-446h532v-158h-706zM254 1456v139l287 125l287 -125v-139l-287 100z" />
<glyph unicode="&#xcb;" horiz-adv-x="993" d="M154 0v1341h706v-157h-532v-424h491v-156h-491v-446h532v-158h-706zM211 1544v60q0 92 111.5 92t111.5 -92v-60q0 -90 -113 -90q-53 0 -81.5 23.5t-28.5 66.5zM563 1544v60q0 92 111.5 92t111.5 -92v-60q0 -90 -112 -90t-111 90z" />
<glyph unicode="&#xcc;" horiz-adv-x="481" d="M37 1698h182l135 -244h-143zM154 0v1341h174v-1341h-174z" />
<glyph unicode="&#xcd;" horiz-adv-x="481" d="M115 1454l135 244h182l-174 -244h-143zM154 0v1341h174v-1341h-174z" />
<glyph unicode="&#xce;" horiz-adv-x="481" d="M-47 1456v139l287 125l287 -125v-139l-287 100zM154 0v1341h174v-1341h-174z" />
<glyph unicode="&#xcf;" horiz-adv-x="481" d="M-51 1544v60q0 92 111.5 92t111.5 -92v-60q0 -90 -113 -90q-53 0 -81.5 23.5t-28.5 66.5zM154 0v1341h174v-1341h-174zM301 1544v60q0 92 111.5 92t111.5 -92v-60q0 -90 -112 -90t-111 90z" />
<glyph unicode="&#xd0;" horiz-adv-x="1169" d="M10 621v143h144v594q140 8 379 8t371 -137t132 -400v-335q0 -250 -130 -384.5t-388 -134.5q-156 0 -364 13v633h-144zM328 137q119 -12 190 -12q154 0 249 89t95 265v363q0 190 -92 283.5t-252 93.5q-112 0 -190 -5v-450h276v-143h-276v-484z" />
<glyph unicode="&#xd1;" horiz-adv-x="1191" d="M154 0v1341h278l434 -1132v1132h172v-1341h-270l-442 1133v-1133h-172zM356 1454v143q23 16 47 31q71 31 114.5 31t77.5 -8.5t63 -17.5q79 -25 112 -25q73 0 160 51v-143q-79 -62 -164 -62q-44 0 -101 18q-109 33 -159.5 33t-149.5 -51z" />
<glyph unicode="&#xd2;" horiz-adv-x="1179" d="M143 416v510q0 440 447 440q340 0 420 -258q26 -82 26 -182v-510q0 -441 -446 -441q-338 0 -421 257q-26 81 -26 184zM317 397q0 -131 69 -199.5t204 -68.5t203.5 68.5t68.5 199.5v547q0 129 -67.5 198.5t-204.5 69.5t-205 -68.5t-68 -197.5v-549zM381 1698h182l135 -244 h-143z" />
<glyph unicode="&#xd3;" horiz-adv-x="1179" d="M143 416v510q0 440 447 440q340 0 420 -258q26 -82 26 -182v-510q0 -441 -446 -441q-338 0 -421 257q-26 81 -26 184zM317 397q0 -131 69 -199.5t204 -68.5t203.5 68.5t68.5 199.5v547q0 129 -67.5 198.5t-204.5 69.5t-205 -68.5t-68 -197.5v-549zM461 1454l135 244h182 l-174 -244h-143z" />
<glyph unicode="&#xd4;" horiz-adv-x="1179" d="M143 416v510q0 440 447 440q340 0 420 -258q26 -82 26 -182v-510q0 -441 -446 -441q-338 0 -421 257q-26 81 -26 184zM303 1456v139l287 125l287 -125v-139l-287 100zM317 397q0 -131 69 -199.5t204 -68.5t203.5 68.5t68.5 199.5v547q0 129 -67.5 198.5t-204.5 69.5 t-205 -68.5t-68 -197.5v-549z" />
<glyph unicode="&#xd5;" horiz-adv-x="1179" d="M143 416v510q0 440 447 440q340 0 420 -258q26 -82 26 -182v-510q0 -441 -446 -441q-338 0 -421 257q-26 81 -26 184zM303 1454v143q23 16 47 31q71 31 114.5 31t77.5 -8.5t63 -17.5q79 -25 112 -25q73 0 160 51v-143q-79 -62 -164 -62q-44 0 -101 18q-109 33 -159.5 33 t-149.5 -51zM317 397q0 -131 69 -199.5t204 -68.5t203.5 68.5t68.5 199.5v547q0 129 -67.5 198.5t-204.5 69.5t-205 -68.5t-68 -197.5v-549z" />
<glyph unicode="&#xd6;" horiz-adv-x="1179" d="M143 416v510q0 440 447 440q340 0 420 -258q26 -82 26 -182v-510q0 -441 -446 -441q-338 0 -421 257q-26 81 -26 184zM304 1544v60q0 92 111.5 92t111.5 -92v-60q0 -90 -113 -90q-53 0 -81.5 23.5t-28.5 66.5zM317 397q0 -131 69 -199.5t204 -68.5t203.5 68.5t68.5 199.5 v547q0 129 -67.5 198.5t-204.5 69.5t-205 -68.5t-68 -197.5v-549zM656 1544v60q0 92 111.5 92t111.5 -92v-60q0 -90 -112 -90t-111 90z" />
<glyph unicode="&#xd7;" d="M205 831l108 111l222 -221l217 217l102 -102l-217 -218l221 -221l-110 -108l-222 219l-215 -215l-102 102l215 215z" />
<glyph unicode="&#xd8;" horiz-adv-x="1179" d="M72 -102l139 241q-68 103 -68 277v510q0 440 447 440q164 0 266 -59l78 137h174l-137 -246q66 -104 65 -272v-510q0 -322 -242 -410q-85 -31 -225.5 -31t-242.5 58l-80 -135h-174zM317 397q0 -43 7 -80l460 834q-68 61 -199.5 61t-199.5 -68.5t-68 -197.5v-549zM397 186 q66 -57 197 -57t199.5 68.5t68.5 199.5v547q0 39 -6 74z" />
<glyph unicode="&#xd9;" horiz-adv-x="1179" d="M154 420v921h174v-944q0 -135 68.5 -201.5t193.5 -66.5t193.5 66.5t68.5 201.5v944h174v-917q0 -217 -108.5 -333t-324.5 -116t-327.5 111t-111.5 334zM406 1698h182l135 -244h-143z" />
<glyph unicode="&#xda;" horiz-adv-x="1179" d="M154 420v921h174v-944q0 -135 68.5 -201.5t193.5 -66.5t193.5 66.5t68.5 201.5v944h174v-917q0 -217 -108.5 -333t-324.5 -116t-327.5 111t-111.5 334zM492 1454l135 244h182l-174 -244h-143z" />
<glyph unicode="&#xdb;" horiz-adv-x="1179" d="M154 420v921h174v-944q0 -135 68.5 -201.5t193.5 -66.5t193.5 66.5t68.5 201.5v944h174v-917q0 -217 -108.5 -333t-324.5 -116t-327.5 111t-111.5 334zM323 1456v139l287 125l287 -125v-139l-287 100z" />
<glyph unicode="&#xdc;" horiz-adv-x="1179" d="M154 420v921h174v-944q0 -135 68.5 -201.5t193.5 -66.5t193.5 66.5t68.5 201.5v944h174v-917q0 -217 -108.5 -333t-324.5 -116t-327.5 111t-111.5 334zM320 1544v60q0 92 111.5 92t111.5 -92v-60q0 -90 -113 -90q-53 0 -81.5 23.5t-28.5 66.5zM672 1544v60q0 92 111.5 92 t111.5 -92v-60q0 -90 -112 -90t-111 90z" />
<glyph unicode="&#xdd;" horiz-adv-x="1013" d="M31 1341h198l279 -696l280 696h195l-389 -880v-461h-174v461zM394 1454l135 244h182l-174 -244h-143z" />
<glyph unicode="&#xde;" horiz-adv-x="1146" d="M154 0v1341h174v-249q98 12 180 12q246 0 359.5 -98.5t113.5 -274.5v-49q0 -186 -110.5 -292.5t-346.5 -106.5q-102 0 -196 16v-299h-174zM328 449q119 -17 188 -17q291 0 291 258v35q0 115 -71.5 174t-231.5 59q-96 0 -176 -10v-499z" />
<glyph unicode="&#xdf;" horiz-adv-x="995" d="M154 0v1094q0 172 75.5 250.5t239 78.5t248 -73.5t84.5 -190.5v-55q0 -66 -28 -110t-60.5 -79.5t-60 -67.5t-27.5 -71v-31q0 -31 9 -49t36 -34l96 -58q96 -47 137 -108.5t41 -147.5v-67q0 -166 -63.5 -236t-223.5 -70q-52 0 -200 31l4 154q137 -31 196 -31q109 0 109 135 v64q0 47 -17.5 74.5t-60.5 52.5l-98 55q-78 43 -105.5 91t-27.5 130v39q0 66 26.5 105.5t58 71.5t58.5 67t27 88v57q0 53 -38 85t-116 32t-111.5 -36t-33.5 -126v-1114h-174z" />
<glyph unicode="&#xe0;" horiz-adv-x="960" d="M113 281v57q0 127 83 206q87 83 226 83q84 0 211 -27v109q0 92 -40 128.5t-122.5 36.5t-277.5 -30v149q211 31 276 31q176 0 257 -78t81 -252v-694h-166v160q-121 -184 -268 -185q-117 0 -188.5 81t-71.5 225zM289 293q0 -78 35 -120t88 -42t112.5 47t108.5 137v158 q-72 14 -163 14t-136 -46t-45 -126v-22zM315 1403h174l156 -285h-135z" />
<glyph unicode="&#xe1;" horiz-adv-x="960" d="M113 281v57q0 127 83 206q87 83 226 83q84 0 211 -27v109q0 92 -40 128.5t-122.5 36.5t-277.5 -30v149q211 31 276 31q176 0 257 -78t81 -252v-694h-166v160q-121 -184 -268 -185q-117 0 -188.5 81t-71.5 225zM289 293q0 -78 35 -120t88 -42t112.5 47t108.5 137v158 q-72 14 -163 14t-136 -46t-45 -126v-22zM377 1118l155 285h174l-194 -285h-135z" />
<glyph unicode="&#xe2;" horiz-adv-x="960" d="M113 281v57q0 127 83 206q87 83 226 83q84 0 211 -27v109q0 92 -40 128.5t-122.5 36.5t-277.5 -30v149q211 31 276 31q176 0 257 -78t81 -252v-694h-166v160q-121 -184 -268 -185q-117 0 -188.5 81t-71.5 225zM221 1118v144l266 151l266 -151v-144l-266 133zM289 293 q0 -78 35 -120t88 -42t112.5 47t108.5 137v158q-72 14 -163 14t-136 -46t-45 -126v-22z" />
<glyph unicode="&#xe3;" horiz-adv-x="960" d="M113 281v57q0 127 83 206q87 83 226 83q84 0 211 -27v109q0 92 -40 128.5t-122.5 36.5t-277.5 -30v149q211 31 276 31q176 0 257 -78t81 -252v-694h-166v160q-121 -184 -268 -185q-117 0 -188.5 81t-71.5 225zM228 1198v143q12 12 58 37t95.5 25t77 -8.5t50.5 -17.5 q62 -25 86 -25t48.5 6t47.5 14q50 17 69 31v-143q-71 -62 -164 -62q-39 0 -85 18q-88 33 -123 33q-75 0 -160 -51zM289 293q0 -78 35 -120t88 -42t112.5 47t108.5 137v158q-72 14 -163 14t-136 -46t-45 -126v-22z" />
<glyph unicode="&#xe4;" horiz-adv-x="960" d="M113 281v57q0 127 83 206q87 83 226 83q84 0 211 -27v109q0 92 -40 128.5t-122.5 36.5t-277.5 -30v149q211 31 276 31q176 0 257 -78t81 -252v-694h-166v160q-121 -184 -268 -185q-117 0 -188.5 81t-71.5 225zM189 1272v59q0 92 111.5 92t111.5 -92v-59q0 -90 -113 -90 q-53 0 -81.5 23.5t-28.5 66.5zM289 293q0 -78 35 -120t88 -42t112.5 47t108.5 137v158q-72 14 -163 14t-136 -46t-45 -126v-22zM541 1272v59q0 92 111.5 92t111.5 -92v-59q0 -90 -112 -90t-111 90z" />
<glyph unicode="&#xe5;" horiz-adv-x="960" d="M113 281v57q0 127 83 206q87 83 226 83q84 0 211 -27v109q0 92 -40 128.5t-122.5 36.5t-277.5 -30v149q211 31 276 31q176 0 257 -78t81 -252v-694h-166v160q-121 -184 -268 -185q-117 0 -188.5 81t-71.5 225zM258 1280q0 104 63.5 154.5t170.5 50.5t172 -50.5t65 -154.5 t-63.5 -154.5t-171 -50.5t-172 50.5t-64.5 154.5zM289 293q0 -78 35 -120t88 -42t112.5 47t108.5 137v158q-72 14 -163 14t-136 -46t-45 -126v-22zM391 1280q0 -92 102 -92q103 0 103 92t-103 92q-102 0 -102 -92z" />
<glyph unicode="&#xe6;" horiz-adv-x="1484" d="M113 281v57q0 126 81 205q85 84 228 84q84 0 211 -27v119q0 86 -39 124t-119 38t-282 -31v143q211 31 276 31q195 0 268 -117q76 117 249 117t264 -93t91 -274v-211h-534v-120q0 -104 52 -150.5t168.5 -46.5t283.5 37l-8 -154q-210 -37 -283 -37q-156 0 -235.5 53.5 t-108.5 155.5q-132 -209 -303 -209q-119 0 -189.5 82t-70.5 224zM289 293q0 -78 34.5 -120t88.5 -42q53 0 112.5 47t108.5 137v158q-72 14 -163 14t-136 -46t-45 -126v-22zM807 590h360v88q0 98 -48 149.5t-130 51.5t-130 -46.5t-52 -138.5v-104z" />
<glyph unicode="&#xe7;" horiz-adv-x="821" d="M143 348v303q0 373 371 373q65 0 201 -20l-4 -154q-106 20 -200.5 20t-144 -53t-49.5 -151v-330q0 -104 52.5 -155.5t145.5 -51.5t196 21l4 -154q-143 -21 -201 -21l-18 -59h20q43 0 75 -36t32 -95v-31q0 -158 -195 -157q-30 0 -100 10v108q46 -8 73 -8q84 0 84 49v27 q-2 31 -18 42t-51 11h-62v43l33 111q-244 57 -244 358z" />
<glyph unicode="&#xe8;" horiz-adv-x="956" d="M143 336v321q0 367 349 367q174 0 263 -93t89 -274v-211h-527v-120q0 -104 49.5 -150.5t164.5 -46.5t282 37l-8 -154q-210 -37 -281 -37q-207 0 -294 89.5t-87 271.5zM317 586h353v92q0 102 -49.5 151.5t-128 49.5t-127 -49.5t-48.5 -145.5v-98zM317 1403h174l156 -285 h-135z" />
<glyph unicode="&#xe9;" horiz-adv-x="956" d="M143 336v321q0 367 349 367q174 0 263 -93t89 -274v-211h-527v-120q0 -104 49.5 -150.5t164.5 -46.5t282 37l-8 -154q-210 -37 -281 -37q-207 0 -294 89.5t-87 271.5zM317 586h353v92q0 102 -49.5 151.5t-128 49.5t-127 -49.5t-48.5 -145.5v-98zM342 1118l155 285h174 l-194 -285h-135z" />
<glyph unicode="&#xea;" horiz-adv-x="956" d="M143 336v321q0 367 349 367q174 0 263 -93t89 -274v-211h-527v-120q0 -104 49.5 -150.5t164.5 -46.5t282 37l-8 -154q-210 -37 -281 -37q-207 0 -294 89.5t-87 271.5zM232 1118v144l266 151l266 -151v-144l-266 133zM317 586h353v92q0 102 -49.5 151.5t-128 49.5 t-127 -49.5t-48.5 -145.5v-98z" />
<glyph unicode="&#xeb;" horiz-adv-x="956" d="M143 336v321q0 367 349 367q174 0 263 -93t89 -274v-211h-527v-120q0 -104 49.5 -150.5t164.5 -46.5t282 37l-8 -154q-210 -37 -281 -37q-207 0 -294 89.5t-87 271.5zM213 1272v59q0 92 111.5 92t111.5 -92v-59q0 -90 -113 -90q-53 0 -81.5 23.5t-28.5 66.5zM317 586h353 v92q0 102 -49.5 151.5t-128 49.5t-127 -49.5t-48.5 -145.5v-98zM565 1272v59q0 92 111.5 92t111.5 -92v-59q0 -90 -112 -90t-111 90z" />
<glyph unicode="&#xec;" horiz-adv-x="501" d="M80 1403h174l156 -285h-135zM164 0v999h174v-999h-174z" />
<glyph unicode="&#xed;" horiz-adv-x="501" d="M101 1118l155 285h174l-194 -285h-135zM164 0v999h174v-999h-174z" />
<glyph unicode="&#xee;" horiz-adv-x="501" d="M-12 1118v144l266 151l266 -151v-144l-266 133zM164 0v999h174v-999h-174z" />
<glyph unicode="&#xef;" horiz-adv-x="501" d="M-39 1272v59q0 92 111.5 92t111.5 -92v-59q0 -90 -113 -90q-53 0 -81.5 23.5t-28.5 66.5zM164 0v999h174v-999h-174zM313 1272v59q0 92 111.5 92t111.5 -92v-59q0 -90 -112 -90t-111 90z" />
<glyph unicode="&#xf0;" horiz-adv-x="1017" d="M154 322v235q0 342 283 342q139 0 251 -160v52q0 183 -86 313l-240 -70v135l140 41q-113 82 -266 82v131q287 0 446 -161l203 59v-135l-121 -35q98 -179 98 -455v-348q0 -180 -89 -276.5t-270 -96.5t-265 83t-84 264zM328 303q0 -182 180 -182t180 182v272 q-51 86 -111.5 127t-117.5 41t-94 -49t-37 -162v-229z" />
<glyph unicode="&#xf1;" horiz-adv-x="1005" d="M154 0v999h163v-149q110 174 273 174q131 0 201.5 -88t70.5 -254v-682h-174v657q0 111 -37 158t-96 47t-120.5 -45t-106.5 -123v-694h-174zM242 1198v143q12 12 58 37t95.5 25t77 -8.5t50.5 -17.5q62 -25 86 -25t48.5 6t47.5 14q50 17 69 31v-143q-71 -62 -164 -62 q-39 0 -85 18q-88 33 -123 33q-75 0 -160 -51z" />
<glyph unicode="&#xf2;" horiz-adv-x="1007" d="M143 348v303q0 174 86 273.5t275 99.5q188 0 274 -99.5t86 -273.5v-303q0 -174 -86 -273.5t-274 -99.5t-274.5 99.5t-86.5 273.5zM317 334q0 -104 49.5 -158.5t137.5 -54.5t137 54t49 159v334q0 104 -49 157.5t-137 53.5t-137.5 -54.5t-49.5 -158.5v-332zM321 1403h174 l156 -285h-135z" />
<glyph unicode="&#xf3;" horiz-adv-x="1007" d="M143 348v303q0 174 86 273.5t275 99.5q188 0 274 -99.5t86 -273.5v-303q0 -174 -86 -273.5t-274 -99.5t-274.5 99.5t-86.5 273.5zM317 334q0 -104 49.5 -158.5t137.5 -54.5t137 54t49 159v334q0 104 -49 157.5t-137 53.5t-137.5 -54.5t-49.5 -158.5v-332zM342 1118 l155 285h174l-194 -285h-135z" />
<glyph unicode="&#xf4;" horiz-adv-x="1007" d="M143 348v303q0 174 86 273.5t275 99.5q188 0 274 -99.5t86 -273.5v-303q0 -174 -86 -273.5t-274 -99.5t-274.5 99.5t-86.5 273.5zM232 1118v144l266 151l266 -151v-144l-266 133zM317 334q0 -104 49.5 -158.5t137.5 -54.5t137 54t49 159v334q0 104 -49 157.5t-137 53.5 t-137.5 -54.5t-49.5 -158.5v-332z" />
<glyph unicode="&#xf5;" horiz-adv-x="1007" d="M143 348v303q0 174 86 273.5t275 99.5q188 0 274 -99.5t86 -273.5v-303q0 -174 -86 -273.5t-274 -99.5t-274.5 99.5t-86.5 273.5zM232 1198v143q12 12 58 37t95.5 25t77 -8.5t50.5 -17.5q62 -25 86 -25t48.5 6t47.5 14q50 17 69 31v-143q-71 -62 -164 -62q-39 0 -85 18 q-88 33 -123 33q-75 0 -160 -51zM317 334q0 -104 49.5 -158.5t137.5 -54.5t137 54t49 159v334q0 104 -49 157.5t-137 53.5t-137.5 -54.5t-49.5 -158.5v-332z" />
<glyph unicode="&#xf6;" horiz-adv-x="1007" d="M143 348v303q0 174 86 273.5t275 99.5q188 0 274 -99.5t86 -273.5v-303q0 -174 -86 -273.5t-274 -99.5t-274.5 99.5t-86.5 273.5zM222 1272v59q0 92 111.5 92t111.5 -92v-59q0 -90 -113 -90q-53 0 -81.5 23.5t-28.5 66.5zM317 334q0 -104 49.5 -158.5t137.5 -54.5t137 54 t49 159v334q0 104 -49 157.5t-137 53.5t-137.5 -54.5t-49.5 -158.5v-332zM574 1272v59q0 92 111.5 92t111.5 -92v-59q0 -90 -112 -90t-111 90z" />
<glyph unicode="&#xf7;" d="M170 543v143h725v-143h-725zM434 315v35q0 41 24.5 65.5t74.5 24.5t75 -24.5t25 -65.5v-35q0 -88 -99.5 -88t-99.5 88zM434 877v34q0 41 24.5 65.5t74.5 24.5t75 -24.5t25 -65.5v-34q0 -89 -101 -89q-49 0 -73.5 24t-24.5 65z" />
<glyph unicode="&#xf8;" horiz-adv-x="1007" d="M12 -104l168 251q-37 82 -37 201v303q0 174 86 273.5t275 99.5q135 0 221 -57l90 135h180l-168 -254q37 -84 37 -197v-303q0 -174 -86 -273.5t-274 -99.5q-136 0 -221 56l-90 -135h-181zM317 324l328 495q-47 59 -138 59.5t-140.5 -54t-49.5 -158.5v-342zM362 178 q49 -57 139.5 -57t139.5 54t49 159v334z" />
<glyph unicode="&#xf9;" horiz-adv-x="1015" d="M154 317v682h174v-651q0 -113 36.5 -162t96.5 -49q59 0 119.5 44t107.5 122v696h174v-999h-164v143q-113 -168 -272 -168q-125 0 -198.5 84t-73.5 258zM291 1403h174l156 -285h-135z" />
<glyph unicode="&#xfa;" horiz-adv-x="1015" d="M154 317v682h174v-651q0 -113 36.5 -162t96.5 -49q59 0 119.5 44t107.5 122v696h174v-999h-164v143q-113 -168 -272 -168q-125 0 -198.5 84t-73.5 258zM414 1118l155 285h174l-194 -285h-135z" />
<glyph unicode="&#xfb;" horiz-adv-x="1015" d="M154 317v682h174v-651q0 -113 36.5 -162t96.5 -49q59 0 119.5 44t107.5 122v696h174v-999h-164v143q-113 -168 -272 -168q-125 0 -198.5 84t-73.5 258zM242 1118v144l266 151l266 -151v-144l-266 133z" />
<glyph unicode="&#xfc;" horiz-adv-x="1015" d="M154 317v682h174v-651q0 -113 36.5 -162t96.5 -49q59 0 119.5 44t107.5 122v696h174v-999h-164v143q-113 -168 -272 -168q-125 0 -198.5 84t-73.5 258zM217 1272v59q0 92 111.5 92t111.5 -92v-59q0 -90 -113 -90q-53 0 -81.5 23.5t-28.5 66.5zM569 1272v59q0 92 111.5 92 t111.5 -92v-59q0 -90 -112 -90t-111 90z" />
<glyph unicode="&#xfd;" horiz-adv-x="921" d="M31 999h190l215 -874l266 874h181l-459 -1378h-174l131 379h-66zM363 1118l155 285h174l-194 -285h-135z" />
<glyph unicode="&#xfe;" horiz-adv-x="1003" d="M154 -379v1778h174v-531q109 156 249 156q283 0 283 -342v-365q0 -162 -83 -252t-224 -90q-105 0 -225 72v-426h-174zM328 203q95 -74 190 -74q168 0 168 213v315q0 211 -133 211q-59 0 -119.5 -43t-105.5 -120v-502z" />
<glyph unicode="&#xff;" horiz-adv-x="921" d="M31 999h190l215 -874l266 874h181l-459 -1378h-174l131 379h-66zM197 1272v59q0 92 111.5 92t111.5 -92v-59q0 -90 -113 -90q-53 0 -81.5 23.5t-28.5 66.5zM549 1272v59q0 92 111.5 92t111.5 -92v-59q0 -90 -112 -90t-111 90z" />
<glyph unicode="&#x152;" horiz-adv-x="1579" d="M143 416v510q0 215 106.5 327.5t311.5 112.5q111 0 197 -25h688v-157h-533v-424h492v-156h-492v-446h533v-158h-688q-84 -25 -189 -25q-217 0 -321.5 115t-104.5 326zM317 397q0 -129 67 -198.5t187 -69.5t168 16v1041q-61 27 -173.5 26.5t-180.5 -68t-68 -198.5v-549z " />
<glyph unicode="&#x153;" horiz-adv-x="1521" d="M143 348v303q0 172 84 272.5t267 100.5t280 -123q93 123 271 123t266 -96.5t88 -270.5v-211h-535v-120q0 -104 51.5 -150.5t169 -46.5t283.5 37l-8 -154q-210 -37 -283 -37q-205 0 -303 123q-93 -123 -275.5 -123t-269 100.5t-86.5 272.5zM317 334q0 -104 49.5 -158.5 t136.5 -54.5q179 0 187 203v346q0 104 -50 156.5t-137 52.5t-136.5 -54.5t-49.5 -158.5v-332zM864 590h361v88q0 98 -48.5 149.5t-132.5 51.5t-132 -50.5t-48 -148.5v-90z" />
<glyph unicode="&#x2c6;" horiz-adv-x="942" d="M205 1118v144l266 151l266 -151v-144l-266 133z" />
<glyph unicode="&#x2dc;" horiz-adv-x="942" d="M205 1198v143q12 12 58 37t95.5 25t77 -8.5t50.5 -17.5q62 -25 86 -25t48.5 6t47.5 14q50 17 69 31v-143q-71 -62 -164 -62q-39 0 -85 18q-88 33 -123 33q-75 0 -160 -51z" />
<glyph unicode="&#x2000;" horiz-adv-x="860" />
<glyph unicode="&#x2001;" horiz-adv-x="1720" />
<glyph unicode="&#x2002;" horiz-adv-x="860" />
<glyph unicode="&#x2003;" horiz-adv-x="1720" />
<glyph unicode="&#x2004;" horiz-adv-x="573" />
<glyph unicode="&#x2005;" horiz-adv-x="430" />
<glyph unicode="&#x2006;" horiz-adv-x="286" />
<glyph unicode="&#x2007;" horiz-adv-x="286" />
<glyph unicode="&#x2008;" horiz-adv-x="215" />
<glyph unicode="&#x2009;" horiz-adv-x="344" />
<glyph unicode="&#x200a;" horiz-adv-x="95" />
<glyph unicode="&#x2010;" horiz-adv-x="716" d="M133 539v133h451v-133h-451z" />
<glyph unicode="&#x2011;" horiz-adv-x="716" d="M133 539v133h451v-133h-451z" />
<glyph unicode="&#x2012;" horiz-adv-x="716" d="M133 539v133h451v-133h-451z" />
<glyph unicode="&#x2013;" horiz-adv-x="1249" d="M133 539v133h983v-133h-983z" />
<glyph unicode="&#x2014;" horiz-adv-x="1454" d="M133 539v133h1188v-133h-1188z" />
<glyph unicode="&#x2018;" horiz-adv-x="444" d="M121 1079v62q0 57 15 102l61 182h121l-47 -203q70 -16 69 -86v-57q0 -90 -109.5 -90t-109.5 90z" />
<glyph unicode="&#x2019;" horiz-adv-x="444" d="M113 1276v57q0 90 109.5 90t109.5 -90v-62q0 -57 -15 -102l-61 -182h-121l47 203q-70 16 -69 86z" />
<glyph unicode="&#x201a;" horiz-adv-x="444" d="M113 68v57q0 90 109.5 90t109.5 -90v-62q0 -57 -15 -102l-61 -182h-121l47 203q-70 16 -69 86z" />
<glyph unicode="&#x201c;" horiz-adv-x="731" d="M121 1077v62q0 57 15 102l61 182h121l-47 -203q70 -16 69 -86v-57q0 -90 -109.5 -90t-109.5 90zM407 1077v62q0 57 15 102l61 182h121l-47 -203q70 -16 69 -86v-57q0 -90 -109.5 -90t-109.5 90z" />
<glyph unicode="&#x201d;" horiz-adv-x="731" d="M113 1276v57q0 90 109.5 90t109.5 -90v-62q0 -57 -15 -102l-61 -182h-121l47 203q-70 16 -69 86zM400 1276v57q0 90 109.5 90t109.5 -90v-62q0 -57 -15 -102l-61 -182h-121l47 203q-70 16 -69 86z" />
<glyph unicode="&#x201e;" horiz-adv-x="731" d="M113 68v57q0 90 109.5 90t109.5 -90v-62q0 -57 -15 -102l-61 -182h-121l47 203q-70 16 -69 86zM400 68v57q0 90 109.5 90t109.5 -90v-62q0 -57 -15 -102l-61 -182h-121l47 203q-70 16 -69 86z" />
<glyph unicode="&#x2022;" horiz-adv-x="481" d="M113 514v68q0 104 128 104t128 -104v-68q0 -104 -129 -104q-59 0 -93 26.5t-34 77.5z" />
<glyph unicode="&#x202f;" horiz-adv-x="344" />
<glyph unicode="&#x2039;" horiz-adv-x="651" d="M133 651l205 348h180l-190 -348l190 -348h-180z" />
<glyph unicode="&#x203a;" horiz-adv-x="651" d="M133 303l191 348l-191 348h180l205 -348l-205 -348h-180z" />
<glyph unicode="&#x205f;" horiz-adv-x="430" />
<glyph unicode="&#x20ac;" d="M96 397l31 144h139v127h-157l30 143h127v31q0 209 93.5 311t312.5 102q103 0 282 -32l-4 -150q-175 33 -288 33t-167.5 -57.5t-54.5 -190.5v-47h428l-30 -143h-398v-127h373l-31 -144h-342v-22q0 -131 54.5 -188.5t167.5 -57.5t288 33l4 -154q-187 -33 -290 -33 t-180.5 26t-125.5 78q-92 98 -92 310v8h-170z" />
<glyph unicode="&#xe000;" horiz-adv-x="1003" d="M0 0v1004h1004v-1004h-1004z" />
</font>
</defs>
</svg>
